
<svg version="1.1" xmlns="http://www.w3.org/2000/svg" xmlns:xlink="http://www.w3.org/1999/xlink" x="0px" y="0px"
	 viewBox="0 0 35 35" enable-background="new 0 0 35 35" xml:space="preserve"
   width="33px" height="33px" fill="#262626">

<g>
	<path d="M0.6,14.7l12-13c0.4-0.4,1-0.7,1.6-0.7h4c0.6,0,1.1,0.2,1.5,0.6L32.2,13c0.5,0.5,0.8,1.1,0.8,1.8v3.8
		c0,0.5-0.2,1.1-0.6,1.5L20.3,33.2c-0.5,0.5-1.1,0.8-1.8,0.8H15c-0.6,0-1.2-0.2-1.6-0.7L0.8,20.8C0.3,20.3,0,19.6,0,18.9v-2.6
		C0,15.7,0.2,15.1,0.6,14.7z"/>
	<g>
		<path d="M15.1,27.4l-9.2-9.2c-0.3-0.3-0.5-0.7-0.5-1.2v-0.3c0-0.4,0.2-0.9,0.5-1.2l3.4-3.3c0.3-0.3,0.6-0.4,1-0.4
			c0.4,0,0.7,0.1,1,0.4l5.2,4.6L28.7,5c0.3-0.3,0.7-0.5,1.1-0.5c0.4,0,0.8,0.2,1.1,0.5l2.4,2.5l0.9,1.1c0.5,0.6,0.4,1.4-0.1,1.9
			l-0.8,0.9l-16.1,16H15.1z"/>
		<path fill="#FFFFFF" d="M29.8,5.1c0.3,0,0.6,0.1,0.8,0.3L33,7.9l0.9,1.1c0.3,0.4,0.3,0.9,0,1.2L33,11.1L17,26.9h-1.7l-9-9
			C6,17.6,5.9,17.3,5.9,17v-0.3c0-0.3,0.1-0.6,0.4-0.8l3.4-3.3c0.2-0.2,0.4-0.3,0.7-0.3c0.2,0,0.5,0.1,0.6,0.2l5.5,4.9L29,5.4
			C29.2,5.2,29.5,5.1,29.8,5.1 M29.8,4.1c-0.5,0-1.1,0.2-1.5,0.6L16.5,16.1l-4.9-4.3c-0.4-0.3-0.8-0.5-1.3-0.5c-0.5,0-1,0.2-1.4,0.6
			l-3.4,3.3c-0.4,0.4-0.7,1-0.7,1.5V17c0,0.6,0.2,1.1,0.6,1.6l9,9l0.3,0.3h0.4H17h0.4l0.3-0.3l16-15.8l0.8-0.9
			c0.7-0.7,0.7-1.8,0.1-2.6l-0.9-1.1l0,0l0,0l-2.4-2.5C30.9,4.3,30.3,4.1,29.8,4.1L29.8,4.1z"/>
	</g>
</g>
</svg>
