<svg class="icon" style="width: 31px; height: 39px;vertical-align: middle;fill: currentColor;overflow: hidden;" viewBox="0 0 1024 1024" version="1.1" xmlns="http://www.w3.org/2000/svg">
  <path d="M914.285714 969.142857l0 36.571429q0 7.460571-5.412571 12.873143t-12.873143 5.412571l-768 0q-7.460571 0-12.873143-5.412571t-5.412571-12.873143l0-36.571429q0-7.460571 5.412571-12.873143t12.873143-5.412571l768 0q7.460571 0 12.873143 5.412571t5.412571 12.873143zM768 365.714286q0 44.544-13.970286 82.285714t-36.571429 64.292571-50.029714 50.322286-54.857143 44.251429-50.029714 41.179429-36.571429 46.592-13.970286 55.149714q0 54.857143 38.253714 128l-2.267429-0.585143 0.585143 0.585143q-51.419429-23.405714-91.428571-47.396571t-79.140571-57.124571-64.877714-69.997714-41.398857-86.016-15.725714-105.179429q0-44.544 13.970286-82.285714t36.571429-64.292571 50.029714-50.322286 54.857143-44.251429 50.029714-41.179429 36.571429-46.592 13.970286-55.149714q0-53.686857-37.741714-128l1.682286 0.585143-0.585143-0.585143q51.419429 23.405714 91.428571 47.396571t79.140571 57.124571 64.877714 69.997714 41.398857 86.016 15.725714 105.179429z" />
</svg>


<svg version="1.1" xmlns="http://www.w3.org/2000/svg" xmlns:xlink="http://www.w3.org/1999/xlink" x="0px" y="0px" width="31px" height="39px"
	 viewBox="0 0 16383 16383" enable-background="new 0 0 16383 16383" xml:space="preserve" fill="#262626">
<path d="M14352.8,15505.3v585.1c0,79.6-28.9,148.2-86.6,206c-57.7,57.7-126.4,86.6-206,86.6H1773c-79.6,0-148.2-28.9-206-86.6
	c-57.7-57.7-86.6-126.4-86.6-206v-585.1c0-79.6,28.9-148.2,86.6-206c57.7-57.7,126.4-86.6,206-86.6h12287.2
	c79.6,0,148.2,28.9,206,86.6C14324,15357.1,14352.8,15425.7,14352.8,15505.3L14352.8,15505.3z M12012.4,5851.1
	c0,475.1-74.5,913.9-223.5,1316.5c-149,402.6-344,745.4-585.1,1028.6c-241.1,283.2-507.9,551.6-800.4,805.1
	c-292.6,253.5-585.1,489.5-877.7,708c-292.6,218.4-559.4,438-800.4,658.8c-241.1,220.8-436.1,469.3-585.1,745.4
	c-149,276.2-223.5,570.3-223.5,882.3c0,585.1,204,1267.7,612,2047.9l-36.3-9.4l9.4,9.4c-548.4-249.6-1036-502.4-1462.8-758.3
	c-426.7-255.9-848.8-560.5-1266.2-913.9s-763.4-726.7-1038-1119.9c-274.6-393.2-495.4-851.9-662.3-1376.2
	c-167-524.3-250.8-1085.2-251.6-1682.8c0-475.1,74.5-913.9,223.5-1316.5c149-402.6,344-745.4,585.1-1028.6
	c241.1-283.2,507.9-551.6,800.4-805.1c292.6-253.5,585.1-489.5,877.7-708c292.6-218.4,559.4-438,800.4-658.8
	c241.1-220.8,436.1-469.3,585.1-745.4c149-276.2,223.5-570.3,223.5-882.3c0-572.6-201.3-1255.2-603.8-2047.9l26.9,9.4l-9.4-9.4
	c548.4,249.6,1036,502.4,1462.8,758.3c426.7,255.9,848.8,560.5,1266.2,913.9c417.4,353.4,763.4,726.7,1038,1119.9
	s495.4,851.9,662.3,1376.2s250.8,1085.2,251.6,1682.8L12012.4,5851.1z"/>
</svg>
